<svg width="1600" height="920" viewBox="0 0 1600 920" fill="none" xmlns="http://www.w3.org/2000/svg">
  <defs>
    <linearGradient id="page" x1="40" y1="48" x2="1540" y2="900" gradientUnits="userSpaceOnUse">
      <stop stop-color="#1B1826"/>
      <stop offset="1" stop-color="#12131D"/>
    </linearGradient>
    <linearGradient id="hero" x1="114" y1="160" x2="1492" y2="764" gradientUnits="userSpaceOnUse">
      <stop stop-color="#0E0B12"/>
      <stop offset="0.46" stop-color="#4B2018"/>
      <stop offset="1" stop-color="#B53D63"/>
    </linearGradient>
    <linearGradient id="poster" x1="1126" y1="250" x2="1450" y2="722" gradientUnits="userSpaceOnUse">
      <stop stop-color="#A53614"/>
      <stop offset="0.56" stop-color="#D87179"/>
      <stop offset="1" stop-color="#B91954"/>
    </linearGradient>
    <radialGradient id="glow" cx="0" cy="0" r="1" gradientUnits="userSpaceOnUse" gradientTransform="translate(1466 52) rotate(134.4) scale(214.615 214.615)">
      <stop stop-color="#7C3AED" stop-opacity="0.7"/>
      <stop offset="1" stop-color="#7C3AED" stop-opacity="0"/>
    </radialGradient>
    <radialGradient id="posterGlow" cx="0" cy="0" r="1" gradientUnits="userSpaceOnUse" gradientTransform="translate(1310 386) rotate(118.416) scale(236 236)">
      <stop stop-color="#F7A3B4" stop-opacity="0.72"/>
      <stop offset="1" stop-color="#F7A3B4" stop-opacity="0"/>
    </radialGradient>
  </defs>

  <rect width="1600" height="920" rx="34" fill="url(#page)"/>
  <rect width="1600" height="920" rx="34" fill="url(#glow)"/>

  <rect x="70" y="26" width="1460" height="78" rx="30" fill="#241C31" fill-opacity="0.95" stroke="#40364F"/>
  <rect x="96" y="34" width="46" height="46" rx="14" fill="#09090E" stroke="#3B2D55" stroke-width="2"/>
  <rect x="103" y="41" width="32" height="32" rx="10" fill="#6D28D9"/>
  <text x="114" y="66" fill="white" font-family="Arial, sans-serif" font-size="26" font-weight="700">K</text>
  <text x="158" y="56" fill="white" font-family="Arial, sans-serif" font-size="28" font-weight="700" letter-spacing="2">KAISTREAM</text>
  <text x="158" y="84" fill="#A1A1B5" font-family="Arial, sans-serif" font-size="12" letter-spacing="6">NEON ANIME CINEMA</text>

  <text x="354" y="63" fill="#E4E1EC" font-family="Arial, sans-serif" font-size="18">Browse</text>
  <text x="486" y="63" fill="#E4E1EC" font-family="Arial, sans-serif" font-size="18">Genres</text>
  <text x="632" y="63" fill="#E4E1EC" font-family="Arial, sans-serif" font-size="18">Schedule</text>
  <text x="758" y="63" fill="#E4E1EC" font-family="Arial, sans-serif" font-size="18">Trending</text>

  <rect x="842" y="26" width="492" height="78" rx="30" fill="#2D233B" stroke="#453857"/>
  <text x="888" y="63" fill="#8F899A" font-family="Arial, sans-serif" font-size="18">Search titles, genres, seasons...</text>

  <rect x="1348" y="26" width="88" height="78" rx="30" fill="#2D233B" stroke="#453857"/>
  <text x="1382" y="63" fill="#F3F2F7" font-family="Arial, sans-serif" font-size="18">EN</text>

  <rect x="1450" y="26" width="104" height="78" rx="30" fill="#241C31" stroke="#6D28D9"/>
  <text x="1486" y="63" fill="#F8F7FC" font-family="Arial, sans-serif" font-size="18" font-weight="700">Login</text>

  <rect x="72" y="144" width="1458" height="706" rx="42" fill="url(#hero)" stroke="#463243"/>
  <rect x="150" y="148" width="562" height="700" rx="28" fill="#0C0A10" fill-opacity="0.58" stroke="#31252F"/>

  <path d="M872 192C748 220 676 310 660 472C642 650 508 714 410 822" stroke="#8A686E" stroke-opacity="0.22" stroke-width="20" stroke-linecap="round"/>
  <path d="M972 252C1056 310 1110 362 1160 418" stroke="#A9828E" stroke-opacity="0.22" stroke-width="18" stroke-linecap="round"/>
  <path d="M1168 352C1146 486 1196 552 1182 640C1168 722 1096 736 1060 792" stroke="#F0B3C0" stroke-opacity="0.38" stroke-width="8" stroke-linecap="round"/>

  <text x="208" y="454" fill="#B57BF1" font-family="Arial, sans-serif" font-size="18" letter-spacing="8">AUTUMN 2024</text>
  <rect x="208" y="394" width="128" height="40" rx="18" fill="#371B4F" stroke="#7041A8"/>
  <text x="224" y="421" fill="#D4A7FF" font-family="Arial, sans-serif" font-size="17" letter-spacing="4">FEATURED</text>
  <rect x="346" y="394" width="88" height="40" rx="18" fill="#1E171F" stroke="#52414E"/>
  <text x="366" y="421" fill="#F0EEF4" font-family="Arial, sans-serif" font-size="17">1080P</text>
  <rect x="444" y="394" width="70" height="40" rx="18" fill="#1E171F" stroke="#52414E"/>
  <text x="462" y="421" fill="#F0EEF4" font-family="Arial, sans-serif" font-size="17">SUB</text>

  <text x="208" y="552" fill="white" font-family="Arial, sans-serif" font-size="72" font-weight="700">Ashen Bloom Requiem</text>
  <text x="208" y="614" fill="#F2EFF4" font-family="Arial, sans-serif" font-size="24">In a kingdom where flowers bloom from graves, novice cantor Reiha is summoned</text>
  <text x="208" y="656" fill="#F2EFF4" font-family="Arial, sans-serif" font-size="24">to solve murders by singing herself into the final memories of the victims. Each</text>
  <text x="208" y="698" fill="#F2EFF4" font-family="Arial, sans-serif" font-size="24">ritual leaves part of those memories behind, forcing her to decide how much of</text>
  <text x="208" y="740" fill="#F2EFF4" font-family="Arial, sans-serif" font-size="24">herself she can trade for the truth.</text>

  <rect x="208" y="786" width="178" height="58" rx="28" fill="#A855F7"/>
  <text x="260" y="823" fill="white" font-family="Arial, sans-serif" font-size="20" font-weight="700">Watch Now</text>
  <rect x="400" y="786" width="184" height="58" rx="28" fill="#2B2025" stroke="#55424A"/>
  <text x="452" y="823" fill="#F7F4F6" font-family="Arial, sans-serif" font-size="20" font-weight="700">Add to List</text>

  <rect x="1062" y="232" width="406" height="520" rx="34" fill="#C98A97" fill-opacity="0.18" stroke="#D5A4AF" stroke-opacity="0.4"/>
  <rect x="1082" y="252" width="366" height="480" rx="30" fill="#05060A"/>
  <rect x="1094" y="264" width="342" height="456" rx="24" fill="url(#poster)"/>
  <rect x="1094" y="264" width="342" height="456" rx="24" fill="url(#posterGlow)"/>
  <path d="M1334 344C1316 424 1354 500 1350 566C1348 618 1322 668 1318 708" stroke="#F1C0C8" stroke-opacity="0.56" stroke-width="6" stroke-linecap="round"/>
  <path d="M1260 330C1196 338 1176 430 1208 500C1242 572 1276 622 1212 688C1190 710 1164 730 1146 760" stroke="#F5C6CD" stroke-opacity="0.45" stroke-width="8" stroke-linecap="round"/>
  <circle cx="1318" cy="414" r="88" stroke="#F7C7D0" stroke-opacity="0.38" stroke-width="10"/>
  <circle cx="1360" cy="406" r="44" fill="#F7A6B4" fill-opacity="0.2"/>
  <text x="1142" y="560" fill="white" font-family="Arial, sans-serif" font-size="34" font-weight="700">Ashen Bloom</text>
  <text x="1142" y="608" fill="white" font-family="Arial, sans-serif" font-size="24" font-weight="700">Requiem</text>
  <text x="1142" y="654" fill="#F8E7EB" font-family="Arial, sans-serif" font-size="14" letter-spacing="6">KAISTREAM ORIGINAL SELECTION</text>
</svg>
