<svg width="128" height="128" viewBox="0 0 128 128" fill="none" xmlns="http://www.w3.org/2000/svg">
  <rect width="128" height="128" rx="34" fill="url(#paint0_linear)"/>
  <circle cx="96" cy="32" r="10" fill="#56D6FF" fill-opacity="0.85"/>
  <path d="M35 88V40H56.4C66.9 40 74 46.2 74 55.2C74 60.9 71 65.3 66.2 67.7L77 88H64.5L55.4 70.3H46.7V88H35ZM46.7 60.2H55.3C60.2 60.2 62.7 57.8 62.7 54C62.7 50.1 60.2 47.7 55.3 47.7H46.7V60.2Z" fill="white"/>
  <path d="M85.5 88C76.4 88 69.2 82.4 69.2 74.1H79.8C80.2 78.6 82.2 80.6 85.7 80.6C88.9 80.6 90.8 79.1 90.8 76.7C90.8 74.2 89 73.1 84.2 71.7L80.3 70.6C73.2 68.5 69.9 65.1 69.9 58.9C69.9 51.6 76.2 46 85.3 46C94.4 46 100.4 51.1 100.9 59H90.5C90 55.2 88.1 53.4 84.9 53.4C81.9 53.4 80.1 55 80.1 57.3C80.1 59.5 81.7 60.6 86.1 61.9L89.9 63C97.7 65.3 101.1 68.7 101.1 74.8C101.1 82.6 94.5 88 85.5 88Z" fill="white"/>
  <defs>
    <linearGradient id="paint0_linear" x1="14" y1="10" x2="114" y2="118" gradientUnits="userSpaceOnUse">
      <stop stop-color="#274BDB"/>
      <stop offset="0.5" stop-color="#5B4DF9"/>
      <stop offset="1" stop-color="#00B9F1"/>
    </linearGradient>
  </defs>
</svg>
